<svg width="40" height="40" viewBox="0 0 40 40" fill="none" xmlns="http://www.w3.org/2000/svg"><path fill-rule="evenodd" clip-rule="evenodd" d="M20 40c11.046 0 20-8.954 20-20S31.046 0 20 0 0 8.954 0 20s8.954 20 20 20zm5.128-20.894c1.124.269 1.965.764 2.523 1.485.557.721.773 1.75.648 3.086-.067.683-.224 1.284-.468 1.803a3.98 3.98 0 0 1-.93 1.284c-.375.337-.841.618-1.398.844a8.538 8.538 0 0 1-1.752.498c-.61.106-1.31.178-2.097.216V32h-2.22v-3.62c-.77 0-1.355-.005-1.759-.015V32h-2.22v-3.678c-.174 0-.433-.002-.779-.007a57.47 57.47 0 0 0-.793-.007H11l.447-2.64h1.6c.48 0 .76-.245.836-.735v-5.798h.23a1.465 1.465 0 0 0-.23-.015v-4.14c-.125-.653-.552-.98-1.283-.98H11v-2.365l3.056.014c.615 0 1.081-.005 1.398-.014V8h2.22v3.563c.789-.02 1.375-.03 1.76-.03V8h2.22v3.635a12.83 12.83 0 0 1 2.017.324c.586.15 1.13.365 1.63.65.5.283.896.658 1.189 1.124.293.466.469 1.016.526 1.651.173 1.75-.456 2.99-1.888 3.722zm-7.41-4.948zm0 0a106.055 106.055 0 0 0 1.348-.022c.206-.004.485.008.836.037.35.028.646.067.886.115s.505.127.793.238c.289.11.52.245.692.404.173.158.32.36.44.606.12.245.18.526.18.843 0 .27-.043.515-.13.736a1.387 1.387 0 0 1-.389.555c-.172.15-.35.28-.533.39-.183.11-.416.2-.7.267-.283.067-.53.12-.741.158a6.063 6.063 0 0 1-.793.08c-.318.014-.558.024-.721.028a15.33 15.33 0 0 1-.67 0l-.498-.007v-4.428zm6.062 9.822c-.092.222-.21.414-.353.578a2 2 0 0 1-.57.432 4.88 4.88 0 0 1-.684.303 5.518 5.518 0 0 1-.8.202 10.527 10.527 0 0 1-1.666.18 18.818 18.818 0 0 1-1.456.015 46.189 46.189 0 0 0-.533-.007v-4.876c.076 0 .305-.004.684-.014.38-.01.69-.014.93-.014.24 0 .572.014.995.043.423.029.778.072 1.067.13.288.057.603.146.944.266.341.12.618.267.83.44.21.173.388.394.533.664.144.269.216.576.216.923 0 .27-.046.514-.137.735z" fill="#fff" fill-opacity=".8"/></svg>