<svg width="40" height="40" viewBox="0 0 40 40" fill="none" xmlns="http://www.w3.org/2000/svg"><path fill-rule="evenodd" clip-rule="evenodd" d="M20 40c11.046 0 20-8.954 20-20S31.046 0 20 0 0 8.954 0 20s8.954 20 20 20zm10.172-26.838A9.634 9.634 0 0 0 33 12.368a10.13 10.13 0 0 1-2.457 2.613c.01.216.014.434.014.653 0 6.672-4.953 14.366-14.01 14.366-2.78 0-5.37-.835-7.547-2.269a9.725 9.725 0 0 0 7.29-2.09c-2.155-.041-3.973-1.501-4.6-3.507a4.805 4.805 0 0 0 2.224-.087c-2.252-.463-3.95-2.504-3.95-4.95v-.064a4.797 4.797 0 0 0 2.23.632 5.084 5.084 0 0 1-2.19-4.203c0-.925.243-1.793.666-2.538 2.43 3.055 6.057 5.065 10.15 5.276a5.161 5.161 0 0 1-.128-1.151c0-2.788 2.205-5.049 4.923-5.049 1.418 0 2.697.613 3.595 1.594a9.709 9.709 0 0 0 3.127-1.225 5.042 5.042 0 0 1-2.165 2.793z" fill="#fff" fill-opacity=".8"/></svg>