<svg width="40" height="40" viewBox="0 0 40 40" fill="none" xmlns="http://www.w3.org/2000/svg"><path fill-rule="evenodd" clip-rule="evenodd" d="M20 40c11.046 0 20-8.954 20-20S31.046 0 20 0 0 8.954 0 20s8.954 20 20 20zm9.078-29.803C25.701 8.141 18.342 7.51 15.624 8.381c-2.717.873-4.465 2.138-5.746 3.873C8.712 13.834 8 15.706 8 17.829s1.082 5.863 5.25 8.194c-.288 1.59-2.419 2.463-3.298 2.823-.12.05-.217.09-.282.12 1.643.842 3.462 1.652 5.426 2.152 1.565.398 3.677.93 5.543.879 1.865-.052 3.681-.374 4.896-.879 1.395-.58 2.456-1.237 4.226-3.033C31.626 26.192 32 23.153 32 21.555c0-1.598-.848-6.564-6.299-8.554.178-1.12 1.997-2.804 3.377-2.804zm-6.41 19.5c3.927-.372 7.082-3.55 7.082-7.44 0-3.89-3.171-7.043-7.083-7.043-3.911 0-7.082 3.154-7.082 7.044 0 1.17.287 2.274.795 3.245 0 1.414-.656 2.201-1.63 3.107 2.073.87 3.99 1.459 7.917 1.087z" fill="#fff" fill-opacity=".8"/></svg>