<svg width="40" height="40" viewBox="0 0 40 40" fill="none" xmlns="http://www.w3.org/2000/svg"><path fill-rule="evenodd" clip-rule="evenodd" d="M20 40c11.046 0 20-8.954 20-20S31.046 0 20 0 0 8.954 0 20s8.954 20 20 20zm3.01-15.232l1.993 2.517.235.283c.277.277.643.475 1.112.424h3.657l.401-.012c.426-.05.83-.212 1.108-.505.426-.447.447-1.072.047-1.645l-3.473-4.341c-.25-.303-.245-.58.023-.95.295-.443.706-.954 1.15-1.509 1.13-1.41 2.483-3.096 2.731-4.648a.477.477 0 0 0 0-.15c-.004-.03-.006-.07-.009-.117-.01-.18-.024-.466-.185-.727a.932.932 0 0 0-.48-.391 1.204 1.204 0 0 0-.256-.059l-.228-.003-3.689-.002a.697.697 0 0 0-.207.035c-.275.084-.958.453-1.207.978a.509.509 0 0 0-.04.125c-.2 1.08-1.614 3.146-2.842 4.875-.285.446-.636.433-.815.37l-.096-.053v-5.399c0-1.396-.99-1.864-2.083-1.864l-1.35.032c-1.466 0-2.523.522-2.845 1.541a.5.5 0 0 0 .406.646c.668.095.944.18.944.784l-.002 4.104-.085.252c-.14.216-.412.293-.541.021l-.034-.059c-1.195-1.821-2.173-3.419-2.97-6.033a.498.498 0 0 0-.475-.354l-3.542-.024c-.493.015-.963.159-1.209.609-.213.39-.17.874-.081 1.31l.019.068c2.59 7.264 6.29 13.095 10.39 13.095h2.304l.35-.023c.573-.11.853-.552.982-.985l.076-.419.454-2.026.03-.068.069.04c.063.044.152.122.263.257zm3.34 3.224l.033-.004-.065.004h.032z" fill="#fff" fill-opacity=".8"/></svg>