<svg width="40" height="40" viewBox="0 0 40 40" fill="none" xmlns="http://www.w3.org/2000/svg"><path fill-rule="evenodd" clip-rule="evenodd" d="M20 0C8.956 0 0 8.956 0 20s8.956 20 20 20 20-8.956 20-20S31.044 0 20 0zm11.604 22.668c.044.288.068.58.068.876 0 4.488-5.224 8.124-11.668 8.124-6.444 0-11.668-3.636-11.668-8.124 0-.3.024-.596.068-.884a2.916 2.916 0 0 1 1.192-5.576c.784 0 1.492.308 2.016.812 2.024-1.46 4.824-2.392 7.94-2.472 0-.04 1.456-6.976 1.456-6.976a.513.513 0 0 1 .616-.4l4.848 1.032a2.072 2.072 0 0 1 1.86-1.164c1.152 0 2.084.932 2.084 2.084a2.083 2.083 0 0 1-2.084 2.084c-1.116 0-2.02-.88-2.072-1.984l-4.34-.924-1.328 6.252c3.06.108 5.808 1.036 7.8 2.476A2.914 2.914 0 0 1 33.332 20a2.929 2.929 0 0 1-1.728 2.668zM15.416 20c1.148 0 2.084.936 2.084 2.084a2.088 2.088 0 0 1-2.084 2.084 2.088 2.088 0 0 1-2.084-2.084c0-1.148.936-2.084 2.084-2.084zm4.588 8.04c1.368 0 3.288-.32 4.184-1.216a.538.538 0 0 1 .764 0 .546.546 0 0 1 0 .764c-1.424 1.42-4.148 1.532-4.948 1.532-.8 0-3.528-.112-4.948-1.532a.538.538 0 0 1 0-.764.538.538 0 0 1 .764 0c.896.896 2.812 1.216 4.184 1.216zm2.496-5.956c0-1.148.936-2.084 2.084-2.084 1.148 0 2.084.936 2.084 2.084a2.088 2.088 0 0 1-2.084 2.084 2.088 2.088 0 0 1-2.084-2.084z" fill="#fff" fill-opacity=".8"/></svg>