<svg width="40" height="40" viewBox="0 0 40 40" fill="none" xmlns="http://www.w3.org/2000/svg"><path fill-rule="evenodd" clip-rule="evenodd" d="M20 40c11.046 0 20-8.954 20-20S31.046 0 20 0 0 8.954 0 20s8.954 20 20 20zM7.424 19.154l5.53 2.092 2.14 6.976a.648.648 0 0 0 1.034.315l3.083-2.546a.91.91 0 0 1 1.121-.032l5.56 4.09a.65.65 0 0 0 1.021-.399l4.073-19.854c.105-.512-.392-.94-.873-.75L7.417 17.917c-.56.22-.555 1.023.007 1.236zm7.325.978l10.808-6.746c.195-.12.395.146.228.302l-8.92 8.403a1.883 1.883 0 0 0-.573 1.121l-.304 2.282c-.04.305-.462.335-.545.04l-1.169-4.161a1.11 1.11 0 0 1 .476-1.24z" fill="#fff" fill-opacity=".8"/></svg>