<svg width="40" height="40" viewBox="0 0 40 40" fill="none" xmlns="http://www.w3.org/2000/svg"><path fill-rule="evenodd" clip-rule="evenodd" d="M20 40c11.046 0 20-8.954 20-20S31.046 0 20 0 0 8.954 0 20s8.954 20 20 20zm12-15.008A7.015 7.015 0 0 1 24.992 32h-9.984A7.015 7.015 0 0 1 8 24.992v-9.984A7.015 7.015 0 0 1 15.008 8h9.984A7.015 7.015 0 0 1 32 15.008v9.984zM15.008 10.034a4.98 4.98 0 0 0-4.974 4.974v9.984a4.98 4.98 0 0 0 4.974 4.974h9.984a4.98 4.98 0 0 0 4.974-4.974v-9.984a4.98 4.98 0 0 0-4.974-4.974h-9.984zM20 26.508A6.516 6.516 0 0 1 13.492 20 6.516 6.516 0 0 1 20 13.492 6.516 6.516 0 0 1 26.509 20 6.516 6.516 0 0 1 20 26.509zm0-10.983A4.48 4.48 0 0 0 15.525 20 4.48 4.48 0 0 0 20 24.475 4.48 4.48 0 0 0 24.475 20 4.48 4.48 0 0 0 20 15.525zm7.446-2.04a.93.93 0 1 1-1.862 0 .93.93 0 0 1 1.862 0z" fill="#fff" fill-opacity=".8"/></svg>