<svg width="40" height="40" viewBox="0 0 40 40" fill="none" xmlns="http://www.w3.org/2000/svg"><path fill-rule="evenodd" clip-rule="evenodd" d="M20 40c11.046 0 20-8.954 20-20S31.046 0 20 0 0 8.954 0 20s8.954 20 20 20zm8.986-12.012c1.256-.145 2.3-1.12 2.595-2.443.418-1.883.419-3.94.419-5.878v-.048c0-1.925 0-3.963-.415-5.83-.293-1.323-1.337-2.299-2.594-2.444-2.976-.345-5.988-.347-8.987-.345-2.999-.002-6.011 0-8.988.345-1.256.145-2.3 1.121-2.593 2.443C8.005 15.671 8 17.728 8 19.667c0 1.939 0 3.994.418 5.878.294 1.323 1.337 2.298 2.594 2.443 2.976.345 5.988.347 8.988.345 2.999.002 6.01 0 8.986-.345zm-8.676-6.291l-3.407 1.83v-8.224l4.14 2.238 3.49 1.887-4.223 2.268z" fill="#fff" fill-opacity=".8"/></svg>