<svg width="40" height="40" viewBox="0 0 40 40" fill="none" xmlns="http://www.w3.org/2000/svg">
<path fill-rule="evenodd" clip-rule="evenodd" d="M20 0C8.95599 0 0 8.95599 0 20C0 31.044 8.95599 40 20 40C31.044 40 40 31.044 40 20C40 8.95599 31.044 0 20 0ZM31.604 22.6678C31.6479 22.9559 31.6721 23.248 31.6721 23.544C31.6721 28.0319 26.4481 31.6681 20.004 31.6681C13.5599 31.6681 8.33588 28.0319 8.33588 23.544C8.33588 23.244 8.35999 22.948 8.40393 22.6599C7.388 22.204 6.67999 21.1841 6.67999 20C6.67999 18.392 7.98401 17.084 9.59595 17.084C10.3799 17.084 11.088 17.392 11.6119 17.8961C13.6359 16.4362 16.4362 15.5038 19.552 15.4239C19.552 15.3839 21.008 8.44788 21.008 8.44788C21.0361 8.31207 21.116 8.1958 21.232 8.12012C21.348 8.04413 21.488 8.02002 21.6241 8.0481L26.4722 9.0799C26.8121 8.39203 27.5119 7.91595 28.3319 7.91595C29.4839 7.91595 30.416 8.84796 30.416 10C30.416 11.152 29.4839 12.084 28.3319 12.084C27.2159 12.084 26.312 11.2039 26.2601 10.1001L21.9199 9.17603L20.592 15.4282C23.652 15.5359 26.4001 16.4639 28.392 17.9041C28.916 17.3962 29.628 17.084 30.416 17.084C32.0282 17.084 33.3319 18.3881 33.3319 20C33.3319 21.192 32.616 22.2119 31.604 22.6678ZM15.4159 20C16.564 20 17.5 20.936 17.5 22.084C17.5 23.2321 16.564 24.1681 15.4159 24.1681C14.2682 24.1681 13.3319 23.2318 13.3319 22.084C13.3319 20.936 14.2682 20 15.4159 20ZM20.004 28.0399C21.3721 28.0399 23.2919 27.72 24.1879 26.824C24.4 26.6119 24.74 26.6119 24.9521 26.824C25.1599 27.0358 25.1599 27.3758 24.9521 27.5879C23.5278 29.0079 20.8038 29.1199 20.004 29.1199C19.2041 29.1199 16.4761 29.0079 15.0562 27.5879C14.8441 27.3761 14.8441 27.0361 15.0562 26.824C15.2679 26.6119 15.6079 26.6119 15.82 26.824C16.716 27.72 18.6319 28.0399 20.004 28.0399ZM22.5 22.084C22.5 20.936 23.436 20 24.584 20C25.7321 20 26.6681 20.936 26.6681 22.084C26.6681 23.2318 25.7318 24.1681 24.584 24.1681C23.436 24.1681 22.5 23.2318 22.5 22.084Z" fill="white" fill-opacity="0.8"/>
</svg>
