<svg width="40" height="40" viewBox="0 0 40 40" fill="none" xmlns="http://www.w3.org/2000/svg">
<path fill-rule="evenodd" clip-rule="evenodd" d="M20 40C31.0457 40 40 31.0457 40 20C40 8.9543 31.0457 0 20 0C8.9543 0 0 8.9543 0 20C0 31.0457 8.9543 40 20 40ZM23.0099 24.7677L25.0031 27.2847L25.2382 27.5676C25.5149 27.8453 25.8809 28.0428 26.3498 27.992H30.0075L30.4082 27.98C30.8344 27.9306 31.2379 27.7678 31.5157 27.4755C31.9419 27.0285 31.9633 26.4026 31.5625 25.83L28.0904 21.4887C27.8406 21.1858 27.8446 20.9095 28.1131 20.5398C28.4083 20.0961 28.8185 19.5846 29.2629 19.0303C30.3933 17.6206 31.7456 15.934 31.994 14.3822C32.002 14.3315 32.002 14.2808 31.994 14.2314C31.9899 14.2013 31.9878 14.1619 31.9853 14.1154C31.9758 13.9352 31.9606 13.6489 31.8003 13.3879C31.6974 13.2225 31.5411 13.077 31.3193 12.9969C31.2365 12.9676 31.151 12.9489 31.0642 12.9382L30.8357 12.9355L27.1473 12.9329C27.0564 12.9329 26.9789 12.9555 26.9402 12.9676C26.665 13.0516 25.9823 13.4213 25.7325 13.9458C25.7138 13.9858 25.7004 14.0272 25.6924 14.0712C25.4934 15.1509 24.0786 17.2168 22.8509 18.9464C22.5664 19.3921 22.215 19.3788 22.036 19.316L21.9398 19.2627V13.8644C21.9398 12.4684 20.9499 12 19.8571 12L18.5065 12.032C17.041 12.032 15.9843 12.5538 15.6623 13.5734C15.5688 13.867 15.7625 14.1753 16.0684 14.2194C16.7364 14.3141 17.0116 14.3995 17.0116 15.0028L17.0103 19.1065L16.9248 19.3588C16.7845 19.575 16.5133 19.6524 16.3837 19.3801L16.3503 19.3214C15.1547 17.4997 14.1768 15.9022 13.3805 13.2878C13.3178 13.0783 13.124 12.9355 12.905 12.9342L9.36342 12.9102C8.87046 12.9248 8.40022 13.069 8.15441 13.5187C7.94066 13.9084 7.98474 14.3929 8.07292 14.8293L8.09162 14.8973C10.682 22.1613 14.3825 27.992 18.4811 27.992H20.7856L21.1369 27.9693C21.7087 27.8586 21.9892 27.4168 22.1175 26.9844L22.1936 26.5654L22.6479 24.5395L22.6772 24.4715L22.7467 24.5115C22.8095 24.5555 22.899 24.6329 23.0099 24.7677ZM26.3498 27.992C26.3608 27.9908 26.3719 27.9895 26.3831 27.988L26.3176 27.992H26.3498Z" fill="white" fill-opacity="0.8"/>
</svg>
