<svg width="40" height="40" viewBox="0 0 40 40" fill="none" xmlns="http://www.w3.org/2000/svg">
<path fill-rule="evenodd" clip-rule="evenodd" d="M20 40C31.0457 40 40 31.0457 40 20C40 8.9543 31.0457 0 20 0C8.9543 0 0 8.9543 0 20C0 31.0457 8.9543 40 20 40ZM23.746 8L19.1428 16.6446L24.5396 24.2857L32 9.98469L23.746 8ZM8 12.2857L15.7143 14.2615V32L8 30.0486V12.2857ZM17.4285 16.5714V24.4198L24.2857 26L17.4285 16.5714ZM32 13.1429V27.7143L25.1428 26.0421L32 13.1429Z" fill="white" fill-opacity="0.8"/>
</svg>
