<svg width="40" height="40" viewBox="0 0 40 40" fill="none" xmlns="http://www.w3.org/2000/svg">
<path fill-rule="evenodd" clip-rule="evenodd" d="M20 40C31.0457 40 40 31.0457 40 20C40 8.9543 31.0457 0 20 0C8.9543 0 0 8.9543 0 20C0 31.0457 8.9543 40 20 40ZM32 24.9923C32 28.8565 28.8565 32 24.9923 32H15.0077C11.1435 32 8 28.8565 8 24.9923V15.0077C8 11.1435 11.1435 8 15.0077 8H24.9923C28.8565 8 32 11.1435 32 15.0077V24.9923ZM15.0077 10.0339C12.2651 10.0339 10.0339 12.2651 10.0339 15.0077V24.9923C10.0339 27.7349 12.2651 29.9661 15.0077 29.9661H24.9923C27.7349 29.9661 29.9661 27.7349 29.9661 24.9923V15.0077C29.9661 12.2651 27.7349 10.0339 24.9923 10.0339H15.0077ZM20 26.5085C16.4113 26.5085 13.4915 23.5887 13.4915 20C13.4915 16.4113 16.4113 13.4915 20 13.4915C23.5887 13.4915 26.5085 16.4113 26.5085 20C26.5085 23.5887 23.5887 26.5085 20 26.5085ZM20 15.5254C17.5326 15.5254 15.5254 17.5326 15.5254 20C15.5254 22.4674 17.5326 24.4746 20 24.4746C22.4674 24.4746 24.4746 22.4674 24.4746 20C24.4746 17.5326 22.4674 15.5254 20 15.5254ZM27.4462 13.4846C27.4462 13.9987 27.0294 14.4155 26.5154 14.4155C26.0013 14.4155 25.5845 13.9987 25.5845 13.4846C25.5845 12.9706 26.0013 12.5538 26.5154 12.5538C27.0294 12.5538 27.4462 12.9706 27.4462 13.4846Z" fill="white" fill-opacity="0.8"/>
</svg>
