<svg width="40" height="40" viewBox="0 0 40 40" fill="none" xmlns="http://www.w3.org/2000/svg">
<path fill-rule="evenodd" clip-rule="evenodd" d="M20 40C31.0457 40 40 31.0457 40 20C40 8.9543 31.0457 0 20 0C8.9543 0 0 8.9543 0 20C0 31.0457 8.9543 40 20 40ZM30.1718 13.1618C31.1676 13.0406 32.1172 12.7691 33 12.3677C32.3401 13.3802 31.5055 14.2692 30.5426 14.9809C30.5522 15.197 30.557 15.415 30.557 15.6338C30.557 22.3065 25.6041 30 16.5472 30C13.7667 30 11.1779 29.1645 9 27.7313C9.38447 27.7784 9.77738 27.8021 10.174 27.8021C12.4815 27.8021 14.6043 26.9952 16.2898 25.6408C14.1347 25.5997 12.3166 24.1399 11.6902 22.1344C11.9905 22.1932 12.2986 22.2244 12.6166 22.2244C13.065 22.2244 13.5009 22.163 13.9136 22.0471C11.6615 21.5835 9.96355 19.5431 9.96355 17.0967C9.96355 17.0756 9.96355 17.0541 9.96392 17.0327C10.6275 17.4118 11.3872 17.6389 12.194 17.6649C10.8735 16.7597 10.0036 15.2136 10.0036 13.4623C10.0036 12.5371 10.2467 11.6692 10.6704 10.9237C13.0991 13.9793 16.7275 15.9893 20.8197 16.1998C20.7352 15.83 20.6915 15.4448 20.6915 15.049C20.6915 12.2611 22.8966 10 25.6154 10C27.0325 10 28.3122 10.613 29.2104 11.5939C30.3315 11.3676 31.3858 10.9478 32.3372 10.369C31.9689 11.5487 31.1886 12.5371 30.1718 13.1618Z" fill="white" fill-opacity="0.8"/>
</svg>
