<svg width="40" height="40" viewBox="0 0 40 40" fill="none" xmlns="http://www.w3.org/2000/svg">
<path fill-rule="evenodd" clip-rule="evenodd" d="M20 40C31.0457 40 40 31.0457 40 20C40 8.9543 31.0457 0 20 0C8.9543 0 0 8.9543 0 20C0 31.0457 8.9543 40 20 40ZM29.0783 10.1973C25.7013 8.14076 18.3416 7.50909 15.6243 8.38142C12.907 9.25376 11.1586 10.519 9.87826 12.2538C8.71168 13.8344 8 15.7056 8 17.829C8 19.9523 9.0821 23.6917 13.2505 26.0234C12.9616 27.6139 10.8311 28.4865 9.95248 28.8464C9.83196 28.8957 9.735 28.9354 9.66957 28.966C11.3125 29.8079 13.1323 30.6185 15.0957 31.1181C16.6606 31.5163 18.7735 32.048 20.6389 31.9965C22.5043 31.9451 24.3205 31.623 25.5347 31.1181C26.93 30.5378 27.9909 29.881 29.761 28.0846C31.626 26.192 32 23.1534 32 21.5551C32 19.9567 31.1522 14.9913 25.7013 13.0014C25.8791 11.8805 27.6985 10.1973 29.0783 10.1973ZM22.6673 29.697C26.5949 29.3252 29.75 26.1475 29.75 22.2576C29.75 18.3676 26.579 15.2142 22.6673 15.2142C18.7556 15.2142 15.5846 18.3676 15.5846 22.2576C15.5846 23.428 15.8717 24.5317 16.3796 25.5029C16.3796 26.9171 15.7239 27.7042 14.75 28.61C16.8232 29.4808 18.7397 30.0688 22.6673 29.697Z" fill="white" fill-opacity="0.8"/>
</svg>
