<svg width="40" height="40" viewBox="0 0 40 40" fill="none" xmlns="http://www.w3.org/2000/svg">
<path fill-rule="evenodd" clip-rule="evenodd" d="M20 40C31.0457 40 40 31.0457 40 20C40 8.9543 31.0457 0 20 0C8.9543 0 0 8.9543 0 20C0 31.0457 8.9543 40 20 40ZM28.986 27.9883C30.2425 27.8431 31.2864 26.8677 31.5806 25.5453C31.999 23.6618 32 21.6058 32 19.6668V19.6193C32 17.6943 32.0001 15.6565 31.5851 13.7884C31.2916 12.4657 30.2477 11.4903 28.9906 11.3447C26.0152 11.0002 23.003 10.9984 20.0043 11.0002C17.005 10.9984 13.9928 11.0002 11.0164 11.3447C9.75996 11.4903 8.71671 12.466 8.42321 13.7884C8.00487 15.6715 8 17.7279 8 19.6668C8 21.6058 8 23.6615 8.41834 25.5453C8.71185 26.8677 9.7551 27.8431 11.0115 27.9883C13.9879 28.3331 17.0001 28.3349 19.9995 28.3331C22.9988 28.3349 26.0103 28.3331 28.986 27.9883ZM20.3099 21.6965C19.1761 22.3056 18.0418 22.9149 16.9031 23.5267V15.3029C18.2851 16.0502 19.6624 16.7947 21.0426 17.5407C22.2025 18.1677 23.3645 18.7957 24.5331 19.4276C23.1208 20.1865 21.7157 20.9413 20.3099 21.6965Z" fill="white" fill-opacity="0.8"/>
</svg>
