<svg width="40" height="40" viewBox="0 0 40 40" fill="none" xmlns="http://www.w3.org/2000/svg">
<path fill-rule="evenodd" clip-rule="evenodd" d="M20 40C31.0457 40 40 31.0457 40 20C40 8.9543 31.0457 0 20 0C8.9543 0 0 8.9543 0 20C0 31.0457 8.9543 40 20 40ZM25.1277 19.1056C26.2523 19.3747 27.0932 19.8699 27.6505 20.5909C28.2079 21.3122 28.4243 22.3412 28.2988 23.6774C28.2317 24.3602 28.0754 24.9612 27.8307 25.4805C27.5852 25.9999 27.2755 26.428 26.9005 26.7642C26.5258 27.1008 26.0597 27.3822 25.5025 27.608C24.9452 27.8341 24.3612 27.9997 23.7509 28.1059C23.1409 28.212 22.4418 28.2837 21.6536 28.3221V32H19.4337V28.3799C18.6648 28.3799 18.0786 28.3752 17.6751 28.3654V32H15.4546V28.3221C15.2815 28.3221 15.0221 28.3197 14.6762 28.3149C14.3301 28.3105 14.066 28.3081 13.8833 28.3081H11.0001L11.4471 25.6686H13.047C13.5276 25.6686 13.8063 25.4232 13.8831 24.9329V19.135H14.1138C14.0561 19.1254 13.9793 19.1205 13.8831 19.1205V14.9809C13.7582 14.3271 13.3305 14.0001 12.6001 14.0001H11V11.6347L14.0561 11.6492C14.6712 11.6492 15.1372 11.6443 15.4544 11.6347V8H17.6746V11.5625C18.4626 11.5433 19.0488 11.5337 19.4332 11.5337V8H21.6531V11.6347C22.4123 11.7019 23.0852 11.8101 23.6713 11.9592C24.2573 12.1082 24.8008 12.3244 25.3004 12.6083C25.8005 12.8919 26.1965 13.2668 26.49 13.7332C26.7833 14.1994 26.9586 14.7494 27.0163 15.3841C27.1891 17.1343 26.5598 18.3747 25.1277 19.1056ZM17.7179 14.1584H17.7178V14.1583H17.7179V14.1584ZM17.7179 14.1584C17.7854 14.1584 17.9751 14.1559 18.2872 14.1511C18.5997 14.1461 18.8591 14.1414 19.0657 14.1365C19.2724 14.1318 19.5511 14.1438 19.902 14.1727C20.2528 14.2015 20.5483 14.2401 20.7885 14.2881C21.0287 14.336 21.2932 14.4154 21.5813 14.526C21.8698 14.6365 22.1003 14.7712 22.2731 14.9298C22.4462 15.0884 22.5928 15.2904 22.7127 15.5356C22.833 15.7808 22.8931 16.062 22.8931 16.3793C22.8931 16.6486 22.8499 16.8938 22.7635 17.1151C22.6772 17.3362 22.5472 17.5214 22.3744 17.6704C22.2016 17.8195 22.0234 17.9494 21.8408 18.0599C21.6584 18.1704 21.4251 18.2594 21.1417 18.3266C20.8583 18.394 20.6108 18.4469 20.3995 18.4852C20.1881 18.5237 19.9238 18.5503 19.6066 18.5646C19.2894 18.579 19.0491 18.5888 18.8858 18.5935C18.7223 18.5983 18.4989 18.5983 18.2153 18.5935C17.9317 18.5888 17.7661 18.5862 17.7179 18.5862V14.1584ZM23.7799 23.9804C23.6884 24.2017 23.5708 24.3941 23.4268 24.5577C23.2825 24.7209 23.0926 24.8653 22.8572 24.9901C22.6219 25.1153 22.3934 25.2161 22.1726 25.293C21.9514 25.3702 21.6846 25.4372 21.3726 25.4951C21.0598 25.5528 20.7861 25.5934 20.5504 25.6176C20.3151 25.6417 20.0341 25.6609 19.7072 25.6754C19.3806 25.6896 19.1257 25.6969 18.9432 25.6969C18.7606 25.6969 18.5299 25.6943 18.2511 25.6896C17.9723 25.6851 17.7946 25.6827 17.7177 25.6827V20.8074C17.7945 20.8074 18.0228 20.8027 18.4025 20.7929C18.7822 20.7832 19.092 20.7787 19.3323 20.7787C19.5725 20.7787 19.9042 20.7929 20.3272 20.8219C20.7499 20.8506 21.1055 20.8937 21.3941 20.9514C21.6823 21.0092 21.9968 21.098 22.3382 21.2183C22.6793 21.3384 22.9557 21.4851 23.1672 21.6581C23.3787 21.8315 23.5564 22.0523 23.7005 22.3216C23.845 22.5908 23.917 22.8985 23.917 23.2448C23.917 23.5143 23.8714 23.7591 23.7799 23.9804Z" fill="white" fill-opacity="0.8"/>
</svg>
