<svg width="40" height="40" viewBox="0 0 40 40" fill="none" xmlns="http://www.w3.org/2000/svg">
<path fill-rule="evenodd" clip-rule="evenodd" d="M20 40C31.0457 40 40 31.0457 40 20C40 8.9543 31.0457 0 20 0C8.9543 0 0 8.9543 0 20C0 31.0457 8.9543 40 20 40ZM7.42391 19.154L12.954 21.2457L15.0945 28.2219C15.2314 28.6687 15.7706 28.8338 16.1284 28.5374L19.211 25.9907C19.5341 25.7239 19.9943 25.7106 20.332 25.959L25.8919 30.0497C26.2747 30.3317 26.817 30.1191 26.913 29.6503L30.9859 9.7961C31.0907 9.28404 30.5942 8.85686 30.1131 9.04544L7.41743 17.9182C6.85735 18.1371 6.86223 18.9407 7.42391 19.154ZM14.7495 20.1323L25.5574 13.3864C25.7516 13.2655 25.9515 13.5317 25.7847 13.6884L16.865 22.0909C16.5515 22.3867 16.3493 22.7825 16.292 23.2121L15.9882 25.494C15.9479 25.7987 15.5256 25.8289 15.4426 25.5341L14.2741 21.3729C14.1402 20.8983 14.3353 20.3914 14.7495 20.1323Z" fill="white" fill-opacity="0.8"/>
</svg>
